<?xml version="1.0" encoding="utf-8"?>
<!-- Generator: Adobe Illustrator 27.1.1, SVG Export Plug-In . SVG Version: 6.00 Build 0)  -->
<svg version="1.1" id="Ebene_1" xmlns="http://www.w3.org/2000/svg" xmlns:xlink="http://www.w3.org/1999/xlink" x="0px" y="0px"
	 viewBox="0 0 251.6 42.5" style="enable-background:new 0 0 251.6 42.5;" xml:space="preserve">
<style type="text/css">
	.st0{fill-rule:evenodd;clip-rule:evenodd;fill:#575757;}
	.st1{fill:#575757;}
	.st2{fill:#F7130D;}
</style>
<path class="st0" d="M62.4,28.6c0.6-9.3-4.1-17.9-13.8-17.9c-8.6,0-14.5,6.9-14.5,15.9c0,9.3,5.5,15.9,14.5,15.9
	c6.4,0,11.1-3,13.3-10.2H55c-0.5,1.9-3,3.9-6.2,3.9c-4.3,0-6.8-2.4-7-7.7L62.4,28.6L62.4,28.6z M41.9,23.4c0.1-2.3,1.5-6.4,6.5-6.4
	c3.8,0,5.5,2.2,6.2,6.4H41.9L41.9,23.4z"/>
<path class="st1" d="M91,11.5h-7.8v15.8c0,6.1-1.8,8.6-6,8.6c-3.6,0-5-2.5-5-7.4v-17h-7.8v18.6c0,7.5,2.1,12.4,10.4,12.4
	c3.3,0,6.7-1.6,8.7-5h0.2v4.2H91V11.5L91,11.5z"/>
<path class="st1" d="M94.9,41.7h7.8V28.1c0-5.3,2-9.7,7.7-9.7c0.9,0,2.1,0.1,2.8,0.3V11c-0.5-0.2-1.2-0.3-1.7-0.3
	c-3.8,0-7.6,2.6-9.1,6.4h-0.1v-5.6h-7.4L94.9,41.7L94.9,41.7z"/>
<path class="st0" d="M113.1,26.6c0,9.6,5.8,15.9,14.7,15.9c9,0,14.7-6.3,14.7-15.9s-5.8-15.9-14.7-15.9
	C118.9,10.7,113.1,17,113.1,26.6L113.1,26.6z M120.9,26.6c0-4.9,1.6-9.7,6.9-9.7s6.9,4.8,6.9,9.7c0,4.8-1.6,9.6-6.9,9.6
	C122.5,36.3,120.9,31.4,120.9,26.6L120.9,26.6z"/>
<path class="st0" d="M165.9,41.7h7.4V0h-7.8v15.2h-0.1c-1.8-3-5.1-4.5-8.4-4.5c-8.3,0-12.6,7.5-12.6,15.7c0,8.4,4.2,16.2,12.7,16.2
	c3.6,0,6.8-1.4,8.6-4.7h0.1v3.8C165.8,41.7,165.9,41.7,165.9,41.7z M165.8,26.5c0,5-1.5,9.7-6.7,9.7c-4.8,0-6.9-5-6.9-9.7
	c0-5,1.8-9.6,6.9-9.6C164.1,16.9,165.8,21.6,165.8,26.5L165.8,26.5z"/>
<path class="st0" d="M194.1,30c0,1.8-0.2,6.9-6.3,6.9c-2.5,0-4.8-0.8-4.8-3.9c0-3,2.2-3.9,4.6-4.4c2.4-0.5,5.2-0.5,6.5-1.8V30
	L194.1,30z M183.9,20.8c0.3-3.3,2.2-4.6,5.2-4.6c2.7,0,5,0.5,5,4.1c0,3.4-4.4,3.2-9.2,4c-4.8,0.7-9.7,2.3-9.7,9.2
	c0,6.2,4.3,9.1,9.7,9.1c3.5,0,7.1-1,9.6-3.7c0.1,1,0.3,2,0.6,2.9h7.9c-0.7-1.2-1-4-1-6.7V19.3c0-7.2-6.8-8.6-12.5-8.6
	c-6.4,0-12.9,2.3-13.3,10.1H183.9L183.9,20.8z"/>
<path class="st1" d="M216.4,2.5h-7.8v9.1h-4.7v5.5h4.7v17.8c0,6,4.2,7.2,8.9,7.2c1.5,0,3.2-0.1,4.6-0.3v-6.5
	c-0.8,0.2-1.6,0.2-2.4,0.2c-2.6,0-3.3-0.7-3.3-3.5V17h5.7v-5.6h-5.7V2.5L216.4,2.5z"/>
<path class="st0" d="M242.9,30c0,1.8-0.2,6.9-6.3,6.9c-2.5,0-4.8-0.8-4.8-3.9c0-3,2.2-3.9,4.6-4.4c2.4-0.5,5.2-0.5,6.5-1.8V30
	L242.9,30z M232.6,20.8c0.3-3.3,2.2-4.6,5.2-4.6c2.7,0,5.1,0.5,5.1,4.1c0,3.4-4.4,3.2-9.2,4c-4.8,0.7-9.7,2.3-9.7,9.2
	c0,6.2,4.3,9.1,9.7,9.1c3.5,0,7.1-1,9.6-3.7c0,1,0.3,2,0.5,2.9h7.9c-0.7-1.2-1-4-1-6.7V19.3c0-7.2-6.8-8.6-12.5-8.6
	c-6.4,0-12.9,2.3-13.3,10.1H232.6L232.6,20.8z"/>
<polygon class="st2" points="29.1,26.8 10.7,11.7 0,11.7 18.4,26.8 0,41.9 10.7,41.9 "/>
<g id="LOGO">
</g>
</svg>
